<?xml version="1.0" encoding="iso-8859-1"?>
<!-- Uploaded to: SVG Repo, www.svgrepo.com, Generator: SVG Repo Mixer Tools -->
<svg version="1.1" id="Layer_1" xmlns="http://www.w3.org/2000/svg" xmlns:xlink="http://www.w3.org/1999/xlink" 
	 viewBox="0 0 512 512" xml:space="preserve">
<rect x="104.088" y="67.516" style="fill:#D0EEEF;" width="303.824" height="343.209"/>
<g>
	<path style="fill:#41BBBE;" d="M104.088,465.966c0,25.319,20.715,46.034,46.034,46.034h211.756
		c25.319,0,46.034-20.715,46.034-46.034v-55.241H104.088V465.966z"/>
	<path style="fill:#41BBBE;" d="M407.912,46.034C407.912,20.715,387.197,0,361.878,0H150.122c-25.319,0-46.034,20.715-46.034,46.034
		v21.483h303.824V46.034z"/>
</g>
<path style="fill:#71CCCE;" d="M256,101.275c-38.739,0-70.142,31.404-70.142,70.142v50.825c0,38.739,31.404,70.142,70.142,70.142
	c38.739,0,70.142-31.403,70.142-70.142v-50.825C326.142,132.679,294.739,101.275,256,101.275z"/>
<g>
	<circle style="fill:#086063;" cx="256" cy="461.363" r="16.879"/>
	<path style="fill:#086063;" d="M291.603,42.198h-71.205c-4.661,0-8.44-3.778-8.44-8.44s3.779-8.44,8.44-8.44h71.205
		c4.661,0,8.44,3.778,8.44,8.44S296.263,42.198,291.603,42.198z"/>
</g>
<path style="fill:#41BBBE;" d="M359.9,180.044c-4.661,0-8.44,3.778-8.44,8.44v33.758c0,52.637-42.823,95.46-95.46,95.46
	s-95.46-42.823-95.46-95.46v-33.758c0-4.662-3.779-8.44-8.44-8.44s-8.44,3.778-8.44,8.44v33.758
	c0,59.105,45.883,107.693,103.9,112.023v34.262h-35.446c-4.661,0-8.44,3.778-8.44,8.44s3.779,8.44,8.44,8.44h87.771
	c4.661,0,8.44-3.778,8.44-8.44s-3.779-8.44-8.44-8.44H264.44v-34.262c58.018-4.33,103.9-52.918,103.9-112.023v-33.758
	C368.34,183.822,364.562,180.044,359.9,180.044z"/>
<path style="fill:#DA5B82;" d="M255.998,227.55c-9.552,0-18.563-4.665-24.101-12.48c-2.696-3.802-1.798-9.071,2.005-11.766
	c3.802-2.694,9.071-1.797,11.766,2.005c2.38,3.357,6.242,5.362,10.331,5.362c4.113,0,7.988-2.023,10.366-5.411
	c2.678-3.815,7.942-4.736,11.756-2.059c3.816,2.677,4.737,7.941,2.06,11.756C274.646,222.842,265.606,227.55,255.998,227.55z"/>
<g>
	<circle style="fill:#06484A;" cx="236.499" cy="178.491" r="8.44"/>
	<circle style="fill:#06484A;" cx="275.501" cy="178.491" r="8.44"/>
</g>
</svg>